<mxfile host="app.diagrams.net" modified="2022-03-10T23:18:04.895Z" agent="5.0 (Windows NT 10.0; Win64; x64) AppleWebKit/537.36 (KHTML, like Gecko) Chrome/99.0.4844.51 Safari/537.36" etag="2EkP0GB727FzBJ4juuID" version="17.1.1" type="github">
  <diagram id="QY2IcG3Q2hbOiHZ_Ddlb" name="Page-1">
    <mxGraphModel dx="868" dy="482" grid="1" gridSize="10" guides="1" tooltips="1" connect="1" arrows="1" fold="1" page="1" pageScale="1" pageWidth="827" pageHeight="1169" math="0" shadow="0">
      <root>
        <mxCell id="0" />
        <mxCell id="1" parent="0" />
        <mxCell id="yo7VVVuzdkt2Id4pDzLs-1" value="Locatario" style="swimlane;horizontal=0;" parent="1" vertex="1">
          <mxGeometry x="40" y="10" width="600" height="200" as="geometry">
            <mxRectangle x="40" y="40" width="30" height="70" as="alternateBounds" />
          </mxGeometry>
        </mxCell>
        <mxCell id="yo7VVVuzdkt2Id4pDzLs-2" style="edgeStyle=orthogonalEdgeStyle;rounded=0;orthogonalLoop=1;jettySize=auto;html=1;exitX=0.5;exitY=0.5;exitDx=0;exitDy=0;exitPerimeter=0;entryX=0;entryY=0.5;entryDx=0;entryDy=0;" parent="yo7VVVuzdkt2Id4pDzLs-1" source="yo7VVVuzdkt2Id4pDzLs-3" target="yo7VVVuzdkt2Id4pDzLs-4" edge="1">
          <mxGeometry relative="1" as="geometry" />
        </mxCell>
        <mxCell id="yo7VVVuzdkt2Id4pDzLs-3" value="" style="shape=umlActor;verticalLabelPosition=bottom;verticalAlign=top;html=1;outlineConnect=0;" parent="yo7VVVuzdkt2Id4pDzLs-1" vertex="1">
          <mxGeometry x="50" y="70" width="30" height="60" as="geometry" />
        </mxCell>
        <mxCell id="yo7VVVuzdkt2Id4pDzLs-4" value="Informar dados obrigatÃ³rios" style="rounded=1;whiteSpace=wrap;html=1;" parent="yo7VVVuzdkt2Id4pDzLs-1" vertex="1">
          <mxGeometry x="120" y="70" width="120" height="60" as="geometry" />
        </mxCell>
        <mxCell id="yo7VVVuzdkt2Id4pDzLs-53" value="Conta criada com sucesso" style="rounded=1;whiteSpace=wrap;html=1;" parent="yo7VVVuzdkt2Id4pDzLs-1" vertex="1">
          <mxGeometry x="450" y="60" width="120" height="60" as="geometry" />
        </mxCell>
        <mxCell id="yo7VVVuzdkt2Id4pDzLs-22" value="Auto-Rent" style="swimlane;" parent="1" vertex="1">
          <mxGeometry x="40" y="300" width="600" height="240" as="geometry" />
        </mxCell>
        <mxCell id="yo7VVVuzdkt2Id4pDzLs-56" style="edgeStyle=orthogonalEdgeStyle;rounded=0;orthogonalLoop=1;jettySize=auto;html=1;entryX=0;entryY=0.5;entryDx=0;entryDy=0;" parent="yo7VVVuzdkt2Id4pDzLs-22" source="yo7VVVuzdkt2Id4pDzLs-26" target="yo7VVVuzdkt2Id4pDzLs-27" edge="1">
          <mxGeometry relative="1" as="geometry" />
        </mxCell>
        <mxCell id="yo7VVVuzdkt2Id4pDzLs-26" value="Checagem dos dados cadastrais" style="rounded=1;whiteSpace=wrap;html=1;" parent="yo7VVVuzdkt2Id4pDzLs-22" vertex="1">
          <mxGeometry x="120" y="105" width="120" height="60" as="geometry" />
        </mxCell>
        <mxCell id="yo7VVVuzdkt2Id4pDzLs-27" value="Dados &lt;br&gt;validos" style="rhombus;whiteSpace=wrap;html=1;fillColor=#fff2cc;strokeColor=#d6b656;" parent="yo7VVVuzdkt2Id4pDzLs-22" vertex="1">
          <mxGeometry x="470" y="95" width="80" height="80" as="geometry" />
        </mxCell>
        <mxCell id="yo7VVVuzdkt2Id4pDzLs-55" style="edgeStyle=orthogonalEdgeStyle;rounded=0;orthogonalLoop=1;jettySize=auto;html=1;entryX=0.5;entryY=0;entryDx=0;entryDy=0;" parent="1" source="yo7VVVuzdkt2Id4pDzLs-4" target="yo7VVVuzdkt2Id4pDzLs-26" edge="1">
          <mxGeometry relative="1" as="geometry" />
        </mxCell>
        <mxCell id="yo7VVVuzdkt2Id4pDzLs-57" style="edgeStyle=orthogonalEdgeStyle;rounded=0;orthogonalLoop=1;jettySize=auto;html=1;entryX=0.5;entryY=1;entryDx=0;entryDy=0;" parent="1" source="yo7VVVuzdkt2Id4pDzLs-27" target="yo7VVVuzdkt2Id4pDzLs-53" edge="1">
          <mxGeometry relative="1" as="geometry" />
        </mxCell>
        <mxCell id="yo7VVVuzdkt2Id4pDzLs-58" value="Sucesso" style="edgeLabel;html=1;align=center;verticalAlign=middle;resizable=0;points=[];" parent="yo7VVVuzdkt2Id4pDzLs-57" vertex="1" connectable="0">
          <mxGeometry x="0.176" y="-1" relative="1" as="geometry">
            <mxPoint as="offset" />
          </mxGeometry>
        </mxCell>
        <mxCell id="yo7VVVuzdkt2Id4pDzLs-62" style="edgeStyle=orthogonalEdgeStyle;rounded=0;orthogonalLoop=1;jettySize=auto;html=1;exitX=0;exitY=0;exitDx=0;exitDy=0;entryX=1;entryY=0.5;entryDx=0;entryDy=0;" parent="1" source="yo7VVVuzdkt2Id4pDzLs-27" target="yo7VVVuzdkt2Id4pDzLs-4" edge="1">
          <mxGeometry relative="1" as="geometry" />
        </mxCell>
        <mxCell id="DDJNuOkjFnU3IYlb2bml-1" value="Dados recusados" style="edgeLabel;html=1;align=center;verticalAlign=middle;resizable=0;points=[];" vertex="1" connectable="0" parent="yo7VVVuzdkt2Id4pDzLs-62">
          <mxGeometry x="0.1074" y="-4" relative="1" as="geometry">
            <mxPoint as="offset" />
          </mxGeometry>
        </mxCell>
      </root>
    </mxGraphModel>
  </diagram>
</mxfile>
